<svg xmlns="http://www.w3.org/2000/svg" xmlns:xlink="http://www.w3.org/1999/xlink" xml:space="preserve" version="1.1" style="shape-rendering:geometricPrecision;text-rendering:geometricPrecision;image-rendering:optimizeQuality;" viewBox="0 0 264 352.5" x="0px" y="0px" fill-rule="evenodd" clip-rule="evenodd"><defs><style type="text/css">
   
    .fil0 {fill:black}
   
  </style></defs><g><path class="fil0" d="M99 44c0,0 -4,86 -15,97 -12,11 -60,13 -57,13 -3,0 45,3 57,14 11,11 15,96 15,96 0,0 4,-85 15,-96 11,-11 59,-14 56,-14 3,0 -45,-2 -56,-13 -11,-11 -15,-97 -15,-97z"/><path class="fil0" d="M36 27c0,0 -2,43 -8,49 -5,5 -29,6 -28,6 -1,0 23,2 28,7 6,6 8,48 8,48 0,0 2,-42 7,-48 6,-5 30,-7 29,-7 1,0 -23,-1 -29,-6 -5,-6 -7,-49 -7,-49z"/><path class="fil0" d="M211 45c0,0 -3,63 -11,70 -8,8 -44,10 -41,10 -3,0 33,2 41,10 8,8 11,71 11,71 0,0 3,-63 11,-71 8,-8 44,-10 42,-10 2,0 -34,-2 -42,-10 -8,-7 -11,-70 -11,-70z"/><path class="fil0" d="M183 172c0,0 -2,43 -7,48 -6,6 -30,7 -29,7 -1,0 23,2 29,7 5,5 7,48 7,48 0,0 2,-43 8,-48 5,-5 29,-7 28,-7 1,0 -23,-1 -28,-7 -6,-5 -8,-48 -8,-48z"/><path class="fil0" d="M158 0c0,0 -2,43 -7,48 -6,6 -30,7 -29,7 -1,0 23,1 29,7 5,5 7,48 7,48 0,0 2,-43 8,-48 5,-6 29,-7 28,-7 1,0 -23,-1 -28,-7 -6,-5 -8,-48 -8,-48z"/></g><text x="0" y="297" fill="#000000" font-size="5px" font-weight="bold" font-family="'Helvetica Neue', Helvetica, Arial-Unicode, Arial, Sans-serif">Created by OneShoot</text><text x="0" y="302" fill="#000000" font-size="5px" font-weight="bold" font-family="'Helvetica Neue', Helvetica, Arial-Unicode, Arial, Sans-serif">from the Noun Project</text></svg>