<?xml version="1.0" encoding="utf-8"?>
<!-- Generator: Adobe Illustrator 23.0.0, SVG Export Plug-In . SVG Version: 6.00 Build 0)  -->
<svg version="1.1" id="레이어_1" xmlns="http://www.w3.org/2000/svg" xmlns:xlink="http://www.w3.org/1999/xlink" x="0px"
	 y="0px" viewBox="0 0 501 501" style="enable-background:new 0 0 501 501;" xml:space="preserve">
<style type="text/css">
	.st0{fill:none;stroke:#FFFFFF;stroke-width:3;stroke-miterlimit:10;}
	.st1{fill:none;stroke:#FFFFFF;stroke-miterlimit:10;}
</style>
<g>
	<line class="st0" x1="250.5" y1="0.5" x2="250.5" y2="500.5"/>
	<line class="st0" x1="500.5" y1="250.5" x2="0.5" y2="250.5"/>
</g>
<g>
	<rect x="0.5" y="0.5" class="st1" width="500" height="500"/>
	<line class="st1" x1="50.5" y1="0.5" x2="50.5" y2="500.5"/>
	<line class="st1" x1="100.5" y1="0.5" x2="100.5" y2="500.5"/>
	<line class="st1" x1="150.5" y1="0.5" x2="150.5" y2="500.5"/>
	<line class="st1" x1="200.5" y1="0.5" x2="200.5" y2="500.5"/>
	<line class="st1" x1="300.5" y1="0.5" x2="300.5" y2="500.5"/>
	<line class="st1" x1="350.5" y1="0.5" x2="350.5" y2="500.5"/>
	<line class="st1" x1="400.5" y1="0.5" x2="400.5" y2="500.5"/>
	<line class="st1" x1="450.5" y1="0.5" x2="450.5" y2="500.5"/>
	<line class="st1" x1="500.5" y1="50.5" x2="0.5" y2="50.5"/>
	<line class="st1" x1="500.5" y1="100.5" x2="0.5" y2="100.5"/>
	<line class="st1" x1="500.5" y1="150.5" x2="0.5" y2="150.5"/>
	<line class="st1" x1="500.5" y1="200.5" x2="0.5" y2="200.5"/>
	<line class="st1" x1="500.5" y1="300.5" x2="0.5" y2="300.5"/>
	<line class="st1" x1="500.5" y1="350.5" x2="0.5" y2="350.5"/>
	<line class="st1" x1="500.5" y1="400.5" x2="0.5" y2="400.5"/>
	<line class="st1" x1="500.5" y1="450.5" x2="0.5" y2="450.5"/>
</g>
</svg>
