<?xml version="1.0" encoding="utf-8"?>
<!-- Generator: Adobe Illustrator 23.0.0, SVG Export Plug-In . SVG Version: 6.00 Build 0)  -->
<svg version="1.1" id="레이어_1" xmlns="http://www.w3.org/2000/svg" xmlns:xlink="http://www.w3.org/1999/xlink" x="0px"
	 y="0px" viewBox="0 0 64 80" style="enable-background:new 0 0 64 80;" xml:space="preserve">
<style type="text/css">
	.st0{fill:#FFFFFF;}
</style>
<g>
	<path class="st0" d="M60.22,18.36h-30V6.93c0-0.55-0.33-1.05-0.84-1.26c-0.51-0.21-1.1-0.1-1.49,0.3L2.82,31.04
		c-0.53,0.53-0.53,1.4,0,1.93l25.07,25.07c0.26,0.26,0.61,0.4,0.96,0.4c0.18,0,0.35-0.03,0.52-0.1c0.51-0.21,0.84-0.71,0.84-1.26
		V45.64h30c0.75,0,1.36-0.61,1.36-1.36V19.73C61.58,18.97,60.97,18.36,60.22,18.36z"/>
</g>
</svg>
