<?xml version="1.0" encoding="utf-8"?>
<!-- Generator: Adobe Illustrator 23.0.0, SVG Export Plug-In . SVG Version: 6.00 Build 0)  -->
<svg version="1.1" id="레이어_1" xmlns="http://www.w3.org/2000/svg" xmlns:xlink="http://www.w3.org/1999/xlink" x="0px"
	 y="0px" viewBox="0 0 1285.1 430.33" style="enable-background:new 0 0 1285.1 430.33;" xml:space="preserve">
<style type="text/css">
	.st0{fill:none;stroke:#FFFFFF;stroke-miterlimit:10;}
</style>
<g>
	<path class="st0" d="M946.32,6.93c-101.36,0-216.14,10.44-334.31,30.77c-170.18,29.29-326.9,75.58-441.3,130.36
		c-55.43,26.54-97.82,53.6-125.99,80.42c-28.55,27.17-41,52.71-37.01,75.91s24.26,43.11,60.25,59.18
		c35.52,15.86,84.51,27.19,145.63,33.67c126.12,13.39,289.3,4.63,459.49-24.66c170.18-29.29,326.9-75.58,441.3-130.36
		c55.43-26.54,97.82-53.6,125.99-80.42c28.55-27.17,41-52.71,37.01-75.91s-24.26-43.11-60.25-59.18
		c-35.52-15.86-84.51-27.19-145.63-33.67C1032.95,8.95,990.93,6.93,946.32,6.93z"/>
</g>
</svg>
