<?xml version="1.0" encoding="utf-8"?>
<!-- Generator: Adobe Illustrator 23.0.0, SVG Export Plug-In . SVG Version: 6.00 Build 0)  -->
<svg version="1.1" id="레이어_1" xmlns="http://www.w3.org/2000/svg" xmlns:xlink="http://www.w3.org/1999/xlink" x="0px"
	 y="0px" viewBox="0 0 1285.1 953.98" style="enable-background:new 0 0 1285.1 953.98;" xml:space="preserve">
<style type="text/css">
	.st0{fill:none;stroke:#FFFFFF;stroke-miterlimit:10;}
</style>
<g>
	<path class="st0" d="M927.02,295.01c-94.92,0-202.41,8.08-313.07,23.81c-159.37,22.67-306.14,58.5-413.26,100.89
		c-51.91,20.54-91.61,41.48-117.99,62.24c-26.74,21.03-38.4,40.79-34.66,58.75c3.74,17.96,22.72,33.36,56.42,45.8
		c33.26,12.27,79.14,21.04,136.38,26.06c118.11,10.36,270.92,3.58,430.3-19.09c159.37-22.67,306.13-58.49,413.26-100.89
		c51.91-20.54,91.61-41.48,117.99-62.24c26.74-21.03,38.4-40.79,34.66-58.75c-3.74-17.96-22.72-33.36-56.42-45.8
		c-33.26-12.27-79.14-21.04-136.38-26.06C1008.15,296.57,968.8,295.01,927.02,295.01z"/>
</g>
</svg>
