<?xml version="1.0" encoding="utf-8"?>
<!-- Generator: Adobe Illustrator 23.0.0, SVG Export Plug-In . SVG Version: 6.00 Build 0)  -->
<svg version="1.1" id="레이어_1" xmlns="http://www.w3.org/2000/svg" xmlns:xlink="http://www.w3.org/1999/xlink" x="0px"
	 y="0px" viewBox="0 0 501 501" style="enable-background:new 0 0 501 501;" xml:space="preserve">
<style type="text/css">
	.st0{fill:#FFFFFF;}
</style>
<g>
	<path class="st0" d="M323.16,381.71c1.09,0,2.18,0,3.27,0c0.14,0.02,0.28,0.06,0.42,0.06c2.5,0.04,5,0.21,7.48,0.54
		c2.1,0.27,4.18,0.67,6.2,1.32c1.54,0.5,3.02,1.12,4.28,2.17c0.7,0.58,1.26,1.27,1.51,2.16c0.08,0.27,0.12,0.55,0.18,0.82
		c0,0.11,0,0.22,0,0.33c-0.02,0.07-0.06,0.14-0.06,0.22c-0.07,0.74-0.35,1.41-0.73,2.04c-0.59,0.98-1.37,1.8-2.22,2.55
		c-1.95,1.71-4.17,3.03-6.47,4.21c-0.79,0.41-1.59,0.78-2.34,1.15c0.15-0.4,0.4-0.79,0.44-1.2c0.08-0.94,0.06-1.89,0.07-2.84
		c0-0.08-0.14-0.23-0.22-0.23c-0.89-0.02-1.79-0.01-2.68,0c-0.07,0-0.21,0.11-0.21,0.17c-0.02,0.37-0.01,0.73-0.01,1.14
		c0.33,0,0.6,0,0.9,0c0,0.14,0,0.24,0,0.33c0,0.36,0.01,0.72-0.01,1.08c-0.02,0.46-0.35,0.73-0.87,0.74c-0.49,0-0.86-0.24-0.86-0.66
		c-0.01-1.5-0.01-3.01,0-4.51c0-0.44,0.35-0.71,0.81-0.72c0.49-0.01,0.8,0.21,0.86,0.65c0.04,0.25,0.05,0.51,0.07,0.76
		c0.73,0,1.44,0,2.14,0c0.23-1.55-0.45-2.5-1.64-2.84c-0.82-0.23-1.66-0.25-2.49-0.07c-1.24,0.27-1.88,0.92-1.96,2.19
		c-0.08,1.49-0.09,2.99-0.01,4.47c0.07,1.34,0.72,1.98,2.05,2.23c0.56,0.1,1.15,0.1,1.68,0.14c0.01,0-0.04,0.02-0.08,0.04
		c-2.61,1.11-5.28,2.07-7.99,2.93c-4.57,1.46-9.22,2.64-13.92,3.57c-2.33,0.46-4.68,0.88-7.03,1.25c-2.07,0.32-4.16,0.58-6.24,0.81
		c-1.82,0.21-3.64,0.38-5.46,0.5c-1.75,0.12-3.5,0.16-5.25,0.23c-0.21,0.01-0.41,0.04-0.61,0.06c-1.09,0-2.18,0-3.27,0
		c-0.14-0.02-0.28-0.05-0.42-0.06c-2.31-0.04-4.61-0.19-6.9-0.47c-2.24-0.27-4.45-0.66-6.6-1.33c-1.48-0.46-2.91-1.04-4.16-1.98
		c-0.91-0.68-1.63-1.5-1.89-2.65c-0.04-0.17-0.08-0.34-0.11-0.5c0-0.13,0-0.26,0-0.39c0.02-0.07,0.05-0.14,0.06-0.22
		c0.07-0.78,0.38-1.47,0.78-2.12c0.76-1.22,1.79-2.19,2.9-3.08c2.6-2.07,5.53-3.57,8.54-4.95c0.02-0.01,0.06,0,0.11,0.01
		c-0.04,0.06-0.07,0.1-0.1,0.15c-0.78,1.1-0.59,2.55,0.46,3.39c0.26,0.21,0.55,0.4,0.84,0.57c0.48,0.29,0.97,0.54,1.44,0.84
		c0.25,0.16,0.49,0.37,0.68,0.6c0.22,0.27,0.18,0.82-0.03,1.08c-0.2,0.24-0.63,0.34-1,0.22c-0.36-0.12-0.52-0.36-0.53-0.8
		c0-0.15-0.02-0.31,0-0.46c0.03-0.27-0.09-0.33-0.34-0.33c-0.47,0.01-0.94,0-1.41,0c-0.72,0.01-0.64-0.1-0.63,0.65
		c0.01,1.33,0.64,2.13,1.95,2.45c0.86,0.21,1.73,0.2,2.59-0.03c0.97-0.26,1.59-0.86,1.74-1.89c0.17-1.2-0.1-2.21-1.21-2.87
		c-0.38-0.23-0.77-0.44-1.16-0.67c-0.44-0.26-0.89-0.51-1.3-0.81c-0.31-0.23-0.37-0.67-0.2-1.01c0.14-0.28,0.51-0.43,0.87-0.36
		c0.38,0.08,0.58,0.32,0.61,0.74c0.01,0.17,0,0.34,0,0.53c0.75,0,1.46,0,2.2,0c0-0.25,0.01-0.48,0-0.7
		c-0.03-0.87-0.43-1.5-1.25-1.82c-0.31-0.12-0.65-0.2-0.98-0.23c-0.48-0.04-0.97-0.01-1.46-0.01c0.8-0.38,1.6-0.71,2.42-1.02
		c6.8-2.57,13.81-4.41,20.95-5.74c3.08-0.57,6.18-1.03,9.28-1.45c2.25-0.31,4.52-0.52,6.78-0.7c2-0.16,4-0.2,6-0.3
		C322.66,381.76,322.91,381.73,323.16,381.71z M300.66,399.89c0.01-0.09,0.02-0.15,0.02-0.2c-0.06-2.74-0.13-5.49-0.18-8.23
		c0-0.24-0.12-0.26-0.31-0.26c-0.97,0-1.94,0.01-2.91-0.01c-0.3-0.01-0.38,0.11-0.43,0.38c-0.32,2.04-0.65,4.08-0.98,6.12
		c-0.13-0.51-0.21-1.02-0.29-1.53c-0.25-1.55-0.5-3.09-0.74-4.64c-0.04-0.26-0.15-0.33-0.41-0.33c-0.96,0.01-1.92,0.02-2.88,0
		c-0.3-0.01-0.37,0.1-0.37,0.38c-0.05,2.69-0.1,5.38-0.16,8.07c0,0.08,0.02,0.16,0.03,0.24c0.73,0,1.43,0,2.19,0
		c0-2.52,0-5.02,0-7.52c0.03,0,0.05,0,0.08,0c0.13,0.7,0.26,1.4,0.39,2.11c0.32,1.73,0.65,3.46,0.97,5.19
		c0.03,0.17,0.08,0.25,0.27,0.24c0.6-0.01,1.2-0.01,1.8,0c0.19,0,0.24-0.08,0.27-0.25c0.28-1.54,0.57-3.08,0.85-4.62
		c0.17-0.93,0.35-1.85,0.52-2.78c0.03,0,0.05,0,0.08,0.01c0,2.53,0,5.07,0,7.62C299.22,399.89,299.93,399.89,300.66,399.89z
		 M321.61,393.03c-0.01,0-0.03-0.01-0.04-0.01c0.03,0.08,0.05,0.16,0.08,0.24c0.63,2.08,1.27,4.16,1.89,6.24
		c0.07,0.25,0.19,0.34,0.45,0.34c0.8-0.02,1.59-0.02,2.39,0c0.33,0.01,0.4-0.1,0.39-0.41c-0.01-2.44-0.01-4.88-0.01-7.32
		c0-0.91,0-0.91-0.9-0.91c-0.42,0-0.84,0-1.3,0c0.04,2.25,0.08,4.45,0.11,6.64c-0.05-0.04-0.07-0.08-0.08-0.12
		c-0.61-2.08-1.22-4.15-1.82-6.23c-0.05-0.16-0.08-0.3-0.31-0.3c-0.93,0.01-1.85,0.01-2.78,0c-0.2,0-0.27,0.08-0.27,0.28
		c0,2.69,0,5.38,0,8.08c0,0.21,0.07,0.29,0.29,0.29c0.49-0.01,0.98,0,1.47,0c0.42,0,0.42,0,0.42-0.43
		C321.6,397.28,321.61,395.15,321.61,393.03z M317.08,394.67c0-1.06-0.01-2.11,0-3.17c0-0.23-0.07-0.31-0.3-0.3
		c-0.51,0.01-1.02,0.02-1.54,0c-0.32-0.02-0.43,0.08-0.42,0.42c0.02,2.04,0.01,4.07,0.01,6.11c0,0.51-0.28,0.82-0.75,0.85
		c-0.5,0.03-0.82-0.24-0.89-0.75c-0.02-0.13-0.01-0.26-0.01-0.39c0-1.96-0.01-3.92,0-5.88c0-0.27-0.07-0.37-0.35-0.36
		c-0.52,0.02-1.05,0.01-1.57,0c-0.24-0.01-0.33,0.07-0.33,0.31c0.02,2.13,0.01,4.27,0.04,6.4c0.01,1.04,0.58,1.74,1.56,2.06
		c0.66,0.22,1.35,0.25,2.04,0.18c1.77-0.18,2.51-1,2.51-2.77C317.09,396.47,317.08,395.57,317.08,394.67z M285.79,392.17
		c0.04,0.09,0.06,0.13,0.07,0.17c0.14,0.95,0.27,1.89,0.41,2.84c0.22,1.51,0.44,3.01,0.67,4.52c0.01,0.08,0.12,0.2,0.19,0.2
		c0.73,0.01,1.45,0.01,2.2,0.01c-0.02-0.15-0.02-0.26-0.04-0.36c-0.49-2.67-0.99-5.34-1.48-8.01c-0.05-0.26-0.15-0.34-0.4-0.33
		c-1.07,0.01-2.13,0.01-3.2,0c-0.28,0-0.37,0.09-0.42,0.36c-0.4,2.19-0.81,4.38-1.21,6.57c-0.11,0.58-0.21,1.17-0.32,1.79
		c0.77,0,1.48,0.01,2.2-0.01c0.07,0,0.19-0.13,0.21-0.21c0.14-0.87,0.27-1.74,0.4-2.61C285.29,395.46,285.53,393.84,285.79,392.17z
		 M306.59,393.79c0.7,0,1.36,0,2.03-0.01c0.05,0,0.14-0.09,0.16-0.15c0.22-1.12-0.36-2.11-1.45-2.45c-0.8-0.25-1.61-0.26-2.42-0.12
		c-0.96,0.17-1.74,0.6-2,1.62c-0.26,1.06-0.05,2,0.88,2.66c0.45,0.32,0.94,0.59,1.41,0.88c0.4,0.25,0.81,0.47,1.17,0.76
		c0.18,0.14,0.33,0.39,0.39,0.61c0.14,0.52-0.19,0.95-0.73,1.01c-0.55,0.06-0.9-0.25-0.92-0.8c0-0.14-0.01-0.28,0-0.42
		c0.03-0.29-0.06-0.42-0.38-0.39c-0.42,0.03-0.85,0.01-1.27,0.01c-0.73,0-0.73,0-0.71,0.73c0.02,1.15,0.58,1.93,1.67,2.26
		c0.98,0.3,1.97,0.3,2.96,0c0.68-0.21,1.25-0.6,1.44-1.3c0.44-1.61,0.18-2.58-1.08-3.39c-0.52-0.33-1.08-0.61-1.61-0.93
		c-0.31-0.18-0.61-0.39-0.87-0.62c-0.24-0.22-0.26-0.66-0.09-0.94c0.16-0.28,0.53-0.39,0.93-0.29c0.29,0.07,0.49,0.33,0.51,0.68
		C306.6,393.38,306.59,393.56,306.59,393.79z"/>
</g>
</svg>
