<?xml version="1.0" encoding="utf-8"?>
<!-- Generator: Adobe Illustrator 23.0.0, SVG Export Plug-In . SVG Version: 6.00 Build 0)  -->
<svg version="1.1" id="레이어_1" xmlns="http://www.w3.org/2000/svg" xmlns:xlink="http://www.w3.org/1999/xlink" x="0px"
	 y="0px" viewBox="0 0 501 501" style="enable-background:new 0 0 501 501;" xml:space="preserve">
<style type="text/css">
	.st0{fill:#FFFFFF;}
</style>
<g>
	<path class="st0" d="M389.15,61.21c-6.95-0.07-14.82,0.6-22.93,2c-11.68,2-22.46,5.25-30.34,9.15c-3.82,1.89-6.74,3.82-8.69,5.75
		c-1.98,1.95-2.85,3.8-2.59,5.48c0.26,1.69,1.63,3.15,4.08,4.34c2.42,1.18,5.77,2.03,9.95,2.55c8.63,1.06,19.82,0.54,31.51-1.46
		c11.68-2,22.46-5.25,30.34-9.15c3.82-1.89,6.74-3.82,8.69-5.75c1.98-1.95,2.85-3.8,2.59-5.48c-0.26-1.69-1.63-3.15-4.08-4.34
		c-2.42-1.18-5.77-2.03-9.95-2.55C395.08,61.42,392.21,61.24,389.15,61.21z"/>
</g>
</svg>
